<?xml version="1.0" standalone="no"?>
<!DOCTYPE svg PUBLIC "-//W3C//DTD SVG 20010904//EN"
 "http://www.w3.org/TR/2001/REC-SVG-20010904/DTD/svg10.dtd">
<svg version="1.0" xmlns="http://www.w3.org/2000/svg"
 width="322.000000pt" height="322.000000pt" viewBox="0 0 322.000000 322.000000"
 preserveAspectRatio="xMidYMid meet">
<metadata>
Created by potrace 1.11, written by Peter Selinger 2001-2013
</metadata>
<g transform="translate(0.000000,322.000000) scale(0.100000,-0.100000)"
fill="#000000" stroke="none">
<path d="M285 2013 c-106 -32 -199 -116 -252 -229 -25 -53 -28 -70 -27 -159 1
-89 4 -107 31 -166 40 -86 114 -161 200 -201 60 -28 78 -32 189 -36 l124 -5 0
24 c0 13 2 97 3 187 l2 162 -25 1 c-113 5 -224 2 -227 -7 -2 -6 7 -26 20 -45
19 -28 31 -36 75 -43 l52 -10 0 -78 0 -79 -59 2 c-104 4 -208 73 -254 169 -31
64 -30 187 1 247 59 114 155 172 280 173 63 0 104 19 120 55 25 54 22 56 -95
54 -60 -1 -130 -8 -158 -16z"/>
<path d="M688 2018 c-2 -7 -4 -188 -4 -403 1 -304 4 -390 14 -389 6 1 19 2 27
3 20 2 65 48 66 69 1 9 2 78 3 152 l1 135 120 0 c184 0 207 -21 210 -191 2
-56 8 -111 15 -123 12 -24 75 -55 90 -46 5 3 8 70 6 148 -3 153 -13 192 -61
237 l-24 23 26 31 c77 91 79 218 5 297 -50 54 -106 66 -308 68 -142 2 -182 -1
-186 -11z m365 -109 c69 -18 95 -99 53 -164 -27 -42 -76 -55 -200 -55 l-112 0
2 113 c1 61 2 112 3 113 8 6 226 0 254 -7z"/>
<path d="M1518 2003 c-80 -37 -139 -109 -154 -188 -9 -47 -10 -582 -1 -591 11
-11 77 18 89 39 6 12 13 56 14 97 1 41 2 87 3 103 l1 27 169 0 170 0 0 -93 c0
-132 11 -154 83 -171 l28 -6 -1 292 c-2 342 -4 355 -84 435 -40 39 -66 56
-108 68 -73 21 -147 17 -209 -12z m208 -108 c66 -39 83 -84 82 -227 l0 -118
-50 44 c-45 41 -147 91 -170 84 -6 -2 12 -14 39 -26 27 -12 64 -38 83 -58 l35
-36 -32 5 c-17 3 -36 8 -41 11 -12 7 -54 14 -132 21 -35 3 -66 8 -69 11 -12
12 -2 193 12 220 47 90 154 121 243 69z"/>
<path d="M2309 2010 c-126 -38 -230 -148 -264 -277 -45 -170 22 -349 167 -446
74 -48 135 -64 261 -66 116 -2 118 -1 97 53 -13 36 -54 53 -145 58 -90 5 -138
25 -197 82 -129 122 -116 334 26 443 55 42 106 59 186 62 89 4 140 38 140 97
0 22 -195 18 -271 -6z"/>
<path d="M2966 2018 c-107 -23 -219 -116 -273 -226 -26 -52 -28 -67 -28 -167
0 -99 3 -115 27 -165 52 -106 138 -184 241 -219 35 -12 89 -19 165 -20 124 -3
128 0 97 58 -18 36 -60 51 -139 51 -73 0 -143 29 -198 83 -40 39 -82 112 -75
130 3 8 44 11 133 10 149 -2 187 6 203 45 23 60 32 57 -164 57 -207 1 -203 -1
-162 88 49 108 138 167 262 174 93 6 124 19 141 59 8 19 14 38 14 44 0 13
-184 12 -244 -2z"/>
</g>
</svg>
