<svg id="Слой_1" data-name="Слой 1" xmlns="http://www.w3.org/2000/svg" viewBox="0 0 511.82 206.58"><defs><style>.cls-1{fill:#fff;}</style></defs><title>GRACE BES</title><path class="cls-1" d="M40.39,265.82a60.32,60.32,0,0,0,7.36,26.72,67.18,67.18,0,0,0,6.52,9.26c1.05,1.26,2.31,2.52,3.58,4q17.67,17.67,42.91,17.67h21.88V267.71H85.19c1.26,9.89,7.36,14.94,18.09,15.36h4v24.4h-6.52a42.9,42.9,0,0,1-31.34-13c-8.2-8.2-12.62-18.09-12.83-29.66h.21c0-.63-.21-1.05-.21-1.68a42.75,42.75,0,0,1,10.73-29,23,23,0,0,1,2.1-2.31,42.9,42.9,0,0,1,31.34-13h4.42c11.36,0,17-5.47,17.25-16.41H100.55c-13.67,0-25.45,3.79-35.76,11.57a90.09,90.09,0,0,0-6.94,6.1q-17.67,17.67-17.67,42.91v1.68h.21Z" transform="translate(-40.17 -181.46)"/><path class="cls-1" d="M277.81,359.4c0-2.93-1.81-4.64-4.74-4.64h-6.31V364h6.31C276,364,277.81,362.33,277.81,359.4Z" transform="translate(-40.17 -181.46)"/><path class="cls-1" d="M158.82,304.95v-36.6h27.77c6.73,0,12.2,1.89,16.2,5.47H203c3.58,3.37,5.47,8.2,5.68,14.3v17.46q-.63,16.72,16.41,17.67V288.12a34.76,34.76,0,0,0-2.95-14.3A30.12,30.12,0,0,0,211.41,262c9.47-8,14.09-18.09,13.88-30.5-.21-8-3.58-14.73-10.31-20.62a33.84,33.84,0,0,0-10.73-6.1,35,35,0,0,0-6.73-1.68,54.59,54.59,0,0,0-8.41-.63H142.62V323.25C154,322.2,159.45,316.1,158.82,304.95Zm0-85.83h29.45c6.73,0,11.57,1.05,14.73,3.16,3.58,2.52,5.68,6.52,5.89,12.2.21,4.84-1.47,9.26-5.47,13.25-4,3.79-9.68,5.47-17.46,5.47H158.82Z" transform="translate(-40.17 -181.46)"/><path class="cls-1" d="M406.4,358.95c0-2.69-1.54-4.19-4.29-4.19h-6.76v8.33h6.76C404.8,363.08,406.4,361.6,406.4,358.95Z" transform="translate(-40.17 -181.46)"/><path class="cls-1" d="M259.37,308.1V283.28H310.7v23.56q-.32,15.78,16.41,16.41V243.73a40.2,40.2,0,0,0-12.2-29.45A43,43,0,0,0,300,204.81a44.21,44.21,0,0,0-29.45,0h-.21a45,45,0,0,0-14.94,9.47,40.2,40.2,0,0,0-12.2,29.45v79.52C254.33,323,259.79,318,259.37,308.1Zm.21-67.53c.42-5.68,2.94-10.52,7.15-14.73a25.66,25.66,0,0,1,43.76,14.73c0,1.05.21,2.1.21,3.16v32.19c-2.73-4.84-7.36-9.26-13.88-13.46a52,52,0,0,0-22.3-8.2c6.73,2.73,12.62,5.68,17,9.26a33.77,33.77,0,0,1,9.68,10.1c-17-5-30.92-7.15-41.44-6.31-.21-6.1-.42-13.88-.42-23.56A15.91,15.91,0,0,1,259.58,240.58Z" transform="translate(-40.17 -181.46)"/><path class="cls-1" d="M498.35,323.46h21.88c-.21-11.15-5.89-16.41-17.46-16h-4.42a42.9,42.9,0,0,1-31.34-13,40.46,40.46,0,0,1-11.57-20.83H493.3c10.1.42,15.57-4.63,16-15.36H454.17a42,42,0,0,1,10.52-24.19,23,23,0,0,1,2.1-2.31,42.9,42.9,0,0,1,31.34-13h4.42c12,.21,17.67-5.26,17.67-16.2H498.35c-13.67,0-25.45,3.79-35.76,11.57a90,90,0,0,0-6.94,6.1C444.92,230.9,439,243.52,438,258.25a34.05,34.05,0,0,0-.21,4.63c0,16.62,5.89,30.92,17.88,42.91C467.42,317.57,481.52,323.46,498.35,323.46Z" transform="translate(-40.17 -181.46)"/><path class="cls-1" d="M368.55,311.89c10.31,7.78,22.09,11.57,35.76,11.57h21.88c-.21-11.15-6.1-16.41-17.67-16h-4.21a42.9,42.9,0,0,1-31.34-13,24,24,0,0,0-2.31-2.31,44.64,44.64,0,0,1,0-58.06,12.06,12.06,0,0,1,2.31-2.31,42.9,42.9,0,0,1,31.34-13h4.21q17,0,17.67-16.41H404.31c-13.67,0-25.45,3.79-35.76,11.57a90,90,0,0,0-6.94,6.1q-17.67,17.67-17.67,42.91c0,16.83,5.89,30.92,17.67,42.91A90.09,90.09,0,0,0,368.55,311.89Z" transform="translate(-40.17 -181.46)"/><path class="cls-1" d="M318,358.95c0-2.69-1.54-4.19-4.29-4.19H307v8.33h6.76C316.41,363.08,318,361.6,318,358.95Z" transform="translate(-40.17 -181.46)"/><path class="cls-1" d="M551.78,181.46h-.63c-.21,0-.42,0-.42.21l-4.63,8.41-4.84-8.41c0-.21-.21-.21-.42-.21h-.42a.45.45,0,0,0-.42.42v12.62a.45.45,0,0,0,.42.42h.42a.45.45,0,0,0,.42-.42v-7.57a18.1,18.1,0,0,0-.21-3.37,24.06,24.06,0,0,1,1.26,2.95l2.95,5c0,.21.21.21.42.21h.42a.73.73,0,0,0,.42-.21l2.95-5a19.24,19.24,0,0,0,1.47-2.95,23.22,23.22,0,0,0-.21,3.37v7.57a.45.45,0,0,0,.42.42h.63c.21,0,.21-.21.21-.42V181.88C552,181.67,552,181.46,551.78,181.46Z" transform="translate(-40.17 -181.46)"/><path class="cls-1" d="M141.08,356.78a7.83,7.83,0,0,1-.42-2.08h-.15a7.85,7.85,0,0,1-.36,2.08L136.49,366h8.21Z" transform="translate(-40.17 -181.46)"/><path class="cls-1" d="M105.89,368.15c0-2.57-1.45-4-4-4H94.66v7.87h7.18C104.44,372.07,105.89,370.75,105.89,368.15Z" transform="translate(-40.17 -181.46)"/><path class="cls-1" d="M40.17,388H520.44V338.82H40.17Zm425.05-34.73c0-.45.15-.6.6-.6h12.22c.42,0,.57.15.57.6v.84c0,.45-.15.6-.57.6H467.4v7.48h9.29c.42,0,.57.15.57.6v.84c0,.45-.15.6-.57.6H467.4v7.78h11c.42,0,.58.15.58.6v.84c0,.45-.15.6-.58.6H465.83c-.45,0-.6-.15-.6-.6Zm-21.89,6.55c0-4.71,2.87-7.57,8.27-7.57,4.62,0,7,1.81,8,5.16.15.45.06.63-.36.78l-.93.33c-.42.12-.6.06-.78-.36-.82-2.63-2.48-3.89-5.95-3.89-4,0-6.06,2.05-6.06,5.52V367c0,3.44,2.11,5.52,6.06,5.52,3.56,0,5.19-1.36,6-4,.18-.42.36-.51.78-.39l.93.36c.39.15.51.33.36.75-1.06,3.38-3.38,5.28-8.09,5.28-5.31,0-8.27-2.87-8.27-7.57ZM435,353.31c0-.45.15-.6.6-.6h1c.45,0,.57.15.57.6v20.21c0,.45-.12.6-.57.6h-1c-.45,0-.6-.15-.6-.6Zm-22.41-.6h.88c.73,0,.93.12,1.09.54l5.91,15.84c.33,1,.6,2.11.72,2.41h.09c.12-.3.36-1.42.69-2.41l5.91-15.84c.12-.42.36-.54,1.06-.54h.88c.42,0,.51.21.39.57l-7.79,20.34a.7.7,0,0,1-.78.51h-.9a.71.71,0,0,1-.78-.48l-7.76-20.37C412.06,352.91,412.15,352.7,412.6,352.7Zm-19.42.6c0-.45.15-.6.6-.6h8.54c4,0,6.34,2.29,6.34,6.25,0,3.35-1.84,5.43-4.86,5.91a4.16,4.16,0,0,1,2,2.08l3.38,6.58c.21.33.15.6-.3.6h-1c-.73,0-1-.09-1.18-.54l-2.93-5.82c-.93-1.87-1.93-2.63-4.31-2.63h-4.07v8.39c0,.45-.12.6-.57.6h-1c-.45,0-.6-.15-.6-.6Zm-19.36,0c0-.45.15-.6.6-.6h12.22c.42,0,.57.15.57.6v.84c0,.45-.15.6-.57.6H376v7.48h9.29c.42,0,.57.15.57.6v.84c0,.45-.15.6-.57.6H376v7.78h11c.42,0,.58.15.58.6v.84c0,.45-.15.6-.58.6H374.43c-.45,0-.6-.15-.6-.6Zm-21.71,15.24.93-.33c.42-.15.58-.06.78.36a6,6,0,0,0,6.1,3.92c4,0,6-1.39,6-4.22,0-3.08-2.84-3.53-5.88-3.86-3.74-.42-8-1.06-8-5.95,0-3.71,2.81-6.19,7.79-6.19,4.16,0,6.4,1.48,7.94,4.65.21.39.09.6-.33.78l-.93.42c-.39.18-.54.12-.78-.27-1.18-2.32-2.84-3.5-5.88-3.5-3.56,0-5.55,1.42-5.55,4,0,3.11,3,3.59,6.25,4,3.62.42,7.57,1.12,7.57,5.91,0,4-2.83,6.34-8.21,6.34-4.37,0-6.79-1.69-8.18-5.19C351.6,368.91,351.69,368.73,352.11,368.54ZM324,353.31c0-.45.15-.6.6-.6H339c.45,0,.6.15.6.6v.84c0,.45-.15.6-.6.6h-6.1v18.77c0,.45-.15.6-.6.6h-1c-.45,0-.6-.15-.6-.6V354.76h-6.1c-.45,0-.6-.15-.6-.6Zm-19.18,0c0-.45.15-.6.6-.6h8.54c4,0,6.34,2.29,6.34,6.25,0,3.35-1.84,5.43-4.86,5.91a4.16,4.16,0,0,1,2,2.08l3.38,6.58c.21.33.15.6-.3.6h-1c-.73,0-1-.09-1.18-.54l-2.93-5.82c-.93-1.87-1.93-2.63-4.31-2.63H307v8.39c0,.45-.12.6-.57.6h-1c-.45,0-.6-.15-.6-.6Zm-19.36,0c0-.45.15-.6.6-.6h12.22c.42,0,.57.15.57.6v.84c0,.45-.15.6-.57.6H287.61v7.48h9.29c.42,0,.57.15.57.6v.84c0,.45-.15.6-.57.6h-9.29v7.78h11c.42,0,.58.15.58.6v.84c0,.45-.15.6-.58.6H286c-.45,0-.6-.15-.6-.6Zm-20.84,0c0-.45.15-.6.6-.6h8.06c4.19,0,6.82,2.5,6.82,6.7s-2.63,6.67-6.82,6.67h-6.49v7.45c0,.45-.12.6-.57.6h-1c-.45,0-.6-.15-.6-.6Zm-22.5,20.19,7.36-10.26-7.15-10c-.21-.3-.09-.57.3-.57h1.21c.66,0,.82.09,1.15.51l5.91,8.3,5.95-8.3c.3-.45.45-.51,1.08-.51h1.21c.39,0,.51.27.3.57l-7.18,10,7.42,10.26c.24.33.18.63-.3.63h-1.21c-.69,0-.88,0-1.15-.54l-6.22-8.66-6.12,8.66c-.3.48-.45.54-1.15.54h-1.15C241.92,374.13,241.86,373.82,242.1,373.49Zm-17.55-20.19c0-.45.15-.6.6-.6h12.22c.42,0,.57.15.57.6v.84c0,.45-.15.6-.57.6H226.72v7.48H236c.42,0,.57.15.57.6v.84c0,.45-.15.6-.57.6h-9.29v7.78h11c.42,0,.58.15.58.6v.84c0,.45-.15.6-.58.6H225.15c-.45,0-.6-.15-.6-.6Zm-30.7-.6h1.24c.69,0,.88,0,1.15.54l6.31,9.93,6.37-9.93c.27-.51.45-.54,1.15-.54h1.15c.42,0,.51.27.3.6l-7.88,12.13v8.09c0,.45-.15.6-.6.6h-1c-.45,0-.6-.15-.6-.6v-8.12l-7.87-12.1C193.33,353,193.42,352.7,193.85,352.7Zm-18.85.6c0-.45.15-.6.6-.6H190c.45,0,.6.15.6.6v.84c0,.45-.15.6-.6.6h-6.1v18.77c0,.45-.15.6-.6.6h-1c-.45,0-.6-.15-.6-.6V354.76h-6.1c-.45,0-.6-.15-.6-.6Zm-20.87,0c0-.45.15-.6.6-.6h1c.45,0,.6.15.6.6v13.55c0,3.5,1.93,5.67,5.91,5.67s5.91-2.17,5.91-5.67V353.31c0-.45.15-.6.6-.6h1c.45,0,.6.15.6.6v13.52c0,4.71-2.72,7.75-8.12,7.75s-8.12-3-8.12-7.75Zm-22.8,20.25,8.09-20.43a.65.65,0,0,1,.75-.51h.91c.42,0,.63.09.78.48l8.09,20.46c.15.36.06.57-.42.57h-.88c-.72,0-1-.12-1.09-.54l-2.26-5.73h-9.44l-2.26,5.73c-.12.42-.33.54-1.06.54h-.82C131.27,374.13,131.18,373.91,131.33,373.55ZM114,353.31c0-.45.15-.6.6-.6h12.22c.42,0,.57.15.57.6v.84c0,.45-.15.6-.57.6H116.13v7.48h9.29c.42,0,.57.15.57.6v.84c0,.45-.15.6-.57.6h-9.29v7.78h11c.42,0,.57.15.57.6v.84c0,.45-.15.6-.57.6H114.57c-.45,0-.6-.15-.6-.6Zm-21.47,0c0-.45.15-.6.6-.6h8.51c3.68,0,5.82,1.93,5.82,5.49,0,2.44-1,4-2.83,4.83v.06c2.29.6,3.59,2.41,3.59,5.28,0,3.71-2.47,5.76-6.25,5.76H93.09c-.45,0-.6-.15-.6-.6Z" transform="translate(-40.17 -181.46)"/><path class="cls-1" d="M105.19,358.47c0-2.47-1.36-3.71-3.86-3.71H94.66v7.48h6.67C103.81,362.24,105.19,361,105.19,358.47Z" transform="translate(-40.17 -181.46)"/><path class="cls-1" d="M537.9,181.46h-9a.45.45,0,0,0-.42.42v.42a.45.45,0,0,0,.42.42h3.79v11.78a.45.45,0,0,0,.42.42h.63c.21,0,.21-.21.21-.42V182.73h4c.21,0,.21-.21.21-.42v-.42C538.11,181.67,538.11,181.46,537.9,181.46Z" transform="translate(-40.17 -181.46)"/></svg>